<mxfile host="app.diagrams.net" modified="2024-06-29T17:42:14.496Z" agent="Mozilla/5.0 (X11; Linux x86_64; rv:122.0) Gecko/20100101 Firefox/122.0" etag="UebdqG5cKdIeM8j3-V90" version="24.6.4" type="device">
  <diagram name="Page-1" id="Tt0fYWTOFyzoxoqD-ytb">
    <mxGraphModel dx="1434" dy="769" grid="1" gridSize="10" guides="1" tooltips="1" connect="1" arrows="1" fold="1" page="1" pageScale="1" pageWidth="850" pageHeight="1100" math="0" shadow="0">
      <root>
        <mxCell id="0" />
        <mxCell id="1" parent="0" />
        <mxCell id="PcdOBNPo4yxr-nPciD2l-52" value="" style="rounded=0;whiteSpace=wrap;html=1;" parent="1" vertex="1">
          <mxGeometry x="20" y="20" width="1480" height="430" as="geometry" />
        </mxCell>
        <mxCell id="PcdOBNPo4yxr-nPciD2l-44" value="" style="rounded=0;whiteSpace=wrap;html=1;" parent="1" vertex="1">
          <mxGeometry x="950" y="200" width="530" height="160" as="geometry" />
        </mxCell>
        <mxCell id="PcdOBNPo4yxr-nPciD2l-35" value="" style="rounded=0;whiteSpace=wrap;html=1;" parent="1" vertex="1">
          <mxGeometry x="90" y="260" width="550" height="160" as="geometry" />
        </mxCell>
        <mxCell id="PcdOBNPo4yxr-nPciD2l-34" value="" style="rounded=0;whiteSpace=wrap;html=1;" parent="1" vertex="1">
          <mxGeometry x="30" y="80" width="810" height="150" as="geometry" />
        </mxCell>
        <mxCell id="PcdOBNPo4yxr-nPciD2l-1" value="&lt;font style=&quot;font-size: 22px;&quot;&gt;Data Processing&lt;/font&gt;" style="text;html=1;align=center;verticalAlign=middle;whiteSpace=wrap;rounded=0;" parent="1" vertex="1">
          <mxGeometry x="690" y="20" width="210" height="60" as="geometry" />
        </mxCell>
        <mxCell id="PcdOBNPo4yxr-nPciD2l-2" value="" style="shape=step;perimeter=stepPerimeter;whiteSpace=wrap;html=1;fixedSize=1;" parent="1" vertex="1">
          <mxGeometry x="40" y="110" width="140" height="110" as="geometry" />
        </mxCell>
        <mxCell id="PcdOBNPo4yxr-nPciD2l-3" value="" style="shape=step;perimeter=stepPerimeter;whiteSpace=wrap;html=1;fixedSize=1;" parent="1" vertex="1">
          <mxGeometry x="170" y="110" width="140" height="110" as="geometry" />
        </mxCell>
        <mxCell id="PcdOBNPo4yxr-nPciD2l-4" value="" style="shape=step;perimeter=stepPerimeter;whiteSpace=wrap;html=1;fixedSize=1;" parent="1" vertex="1">
          <mxGeometry x="300" y="110" width="140" height="110" as="geometry" />
        </mxCell>
        <mxCell id="PcdOBNPo4yxr-nPciD2l-5" value="" style="shape=step;perimeter=stepPerimeter;whiteSpace=wrap;html=1;fixedSize=1;" parent="1" vertex="1">
          <mxGeometry x="430" y="110" width="140" height="110" as="geometry" />
        </mxCell>
        <mxCell id="PcdOBNPo4yxr-nPciD2l-6" value="&lt;font style=&quot;font-size: 18px;&quot;&gt;Obtain Copernicus Marine Data&lt;/font&gt;" style="text;html=1;align=center;verticalAlign=middle;whiteSpace=wrap;rounded=0;" parent="1" vertex="1">
          <mxGeometry x="65" y="120" width="90" height="90" as="geometry" />
        </mxCell>
        <mxCell id="PcdOBNPo4yxr-nPciD2l-7" value="&lt;font style=&quot;font-size: 16px;&quot;&gt;NetCDF to CSV&lt;/font&gt;" style="text;html=1;align=center;verticalAlign=middle;whiteSpace=wrap;rounded=0;" parent="1" vertex="1">
          <mxGeometry x="195" y="120" width="90" height="90" as="geometry" />
        </mxCell>
        <mxCell id="PcdOBNPo4yxr-nPciD2l-8" value="&lt;font style=&quot;font-size: 16px;&quot;&gt;CSV to GeoJSON&lt;/font&gt;" style="text;html=1;align=center;verticalAlign=middle;whiteSpace=wrap;rounded=0;" parent="1" vertex="1">
          <mxGeometry x="325" y="120" width="90" height="90" as="geometry" />
        </mxCell>
        <mxCell id="PcdOBNPo4yxr-nPciD2l-9" value="&lt;font style=&quot;font-size: 18px;&quot;&gt;Clean ground data&lt;/font&gt;" style="text;html=1;align=center;verticalAlign=middle;whiteSpace=wrap;rounded=0;" parent="1" vertex="1">
          <mxGeometry x="455" y="120" width="90" height="90" as="geometry" />
        </mxCell>
        <mxCell id="PcdOBNPo4yxr-nPciD2l-10" value="" style="shape=step;perimeter=stepPerimeter;whiteSpace=wrap;html=1;fixedSize=1;" parent="1" vertex="1">
          <mxGeometry x="360" y="300" width="140" height="110" as="geometry" />
        </mxCell>
        <mxCell id="PcdOBNPo4yxr-nPciD2l-11" value="&lt;font style=&quot;font-size: 17px;&quot;&gt;Calculate center fish farm&lt;/font&gt;" style="text;html=1;align=center;verticalAlign=middle;whiteSpace=wrap;rounded=0;" parent="1" vertex="1">
          <mxGeometry x="385" y="310" width="90" height="90" as="geometry" />
        </mxCell>
        <mxCell id="PcdOBNPo4yxr-nPciD2l-14" value="" style="shape=step;perimeter=stepPerimeter;whiteSpace=wrap;html=1;fixedSize=1;" parent="1" vertex="1">
          <mxGeometry x="490" y="300" width="140" height="110" as="geometry" />
        </mxCell>
        <mxCell id="PcdOBNPo4yxr-nPciD2l-15" value="&lt;font style=&quot;font-size: 16px;&quot;&gt;Insert fish farm static data&lt;/font&gt;" style="text;html=1;align=center;verticalAlign=middle;whiteSpace=wrap;rounded=0;" parent="1" vertex="1">
          <mxGeometry x="515" y="310" width="90" height="90" as="geometry" />
        </mxCell>
        <mxCell id="PcdOBNPo4yxr-nPciD2l-18" value="" style="shape=step;perimeter=stepPerimeter;whiteSpace=wrap;html=1;fixedSize=1;" parent="1" vertex="1">
          <mxGeometry x="230" y="300" width="140" height="110" as="geometry" />
        </mxCell>
        <mxCell id="PcdOBNPo4yxr-nPciD2l-19" value="&lt;font style=&quot;font-size: 16px;&quot;&gt;Shapefile to GeoJSON&lt;/font&gt;" style="text;html=1;align=center;verticalAlign=middle;whiteSpace=wrap;rounded=0;" parent="1" vertex="1">
          <mxGeometry x="255" y="310" width="90" height="90" as="geometry" />
        </mxCell>
        <mxCell id="PcdOBNPo4yxr-nPciD2l-20" value="" style="shape=step;perimeter=stepPerimeter;whiteSpace=wrap;html=1;fixedSize=1;" parent="1" vertex="1">
          <mxGeometry x="690" y="110" width="140" height="110" as="geometry" />
        </mxCell>
        <mxCell id="PcdOBNPo4yxr-nPciD2l-22" value="" style="shape=step;perimeter=stepPerimeter;whiteSpace=wrap;html=1;fixedSize=1;" parent="1" vertex="1">
          <mxGeometry x="100" y="300" width="140" height="110" as="geometry" />
        </mxCell>
        <mxCell id="PcdOBNPo4yxr-nPciD2l-23" value="&lt;font style=&quot;font-size: 18px;&quot;&gt;Read fish farm data&lt;/font&gt;" style="text;html=1;align=center;verticalAlign=middle;whiteSpace=wrap;rounded=0;" parent="1" vertex="1">
          <mxGeometry x="125" y="310" width="90" height="90" as="geometry" />
        </mxCell>
        <mxCell id="PcdOBNPo4yxr-nPciD2l-24" value="" style="shape=step;perimeter=stepPerimeter;whiteSpace=wrap;html=1;fixedSize=1;" parent="1" vertex="1">
          <mxGeometry x="560" y="110" width="140" height="110" as="geometry" />
        </mxCell>
        <mxCell id="PcdOBNPo4yxr-nPciD2l-25" value="&lt;font style=&quot;font-size: 17px;&quot;&gt;Filter by Nearest Point&lt;/font&gt;" style="text;html=1;align=center;verticalAlign=middle;whiteSpace=wrap;rounded=0;" parent="1" vertex="1">
          <mxGeometry x="715" y="120" width="90" height="90" as="geometry" />
        </mxCell>
        <mxCell id="PcdOBNPo4yxr-nPciD2l-26" value="" style="shape=step;perimeter=stepPerimeter;whiteSpace=wrap;html=1;fixedSize=1;" parent="1" vertex="1">
          <mxGeometry x="960" y="240" width="140" height="110" as="geometry" />
        </mxCell>
        <mxCell id="PcdOBNPo4yxr-nPciD2l-27" value="&lt;font style=&quot;font-size: 16px;&quot;&gt;Select data by date and hour&lt;/font&gt;" style="text;html=1;align=center;verticalAlign=middle;whiteSpace=wrap;rounded=0;" parent="1" vertex="1">
          <mxGeometry x="985" y="250" width="90" height="90" as="geometry" />
        </mxCell>
        <mxCell id="PcdOBNPo4yxr-nPciD2l-28" value="" style="shape=step;perimeter=stepPerimeter;whiteSpace=wrap;html=1;fixedSize=1;" parent="1" vertex="1">
          <mxGeometry x="1090" y="240" width="140" height="110" as="geometry" />
        </mxCell>
        <mxCell id="PcdOBNPo4yxr-nPciD2l-29" value="&lt;font style=&quot;font-size: 18px;&quot;&gt;Add openweather data&lt;/font&gt;" style="text;html=1;align=center;verticalAlign=middle;whiteSpace=wrap;rounded=0;" parent="1" vertex="1">
          <mxGeometry x="1110" y="250" width="110" height="90" as="geometry" />
        </mxCell>
        <mxCell id="PcdOBNPo4yxr-nPciD2l-30" value="&lt;font style=&quot;font-size: 16px;&quot;&gt;Display on Mapbox&lt;/font&gt;" style="rhombus;whiteSpace=wrap;html=1;" parent="1" vertex="1">
          <mxGeometry x="1260" y="240" width="210" height="110" as="geometry" />
        </mxCell>
        <mxCell id="PcdOBNPo4yxr-nPciD2l-38" value="&lt;font style=&quot;font-size: 14px;&quot;&gt;Dynamic Data (daily execution)&lt;/font&gt;" style="text;html=1;align=center;verticalAlign=middle;whiteSpace=wrap;rounded=0;" parent="1" vertex="1">
          <mxGeometry x="275" y="80" width="215" height="30" as="geometry" />
        </mxCell>
        <mxCell id="PcdOBNPo4yxr-nPciD2l-39" value="&lt;font style=&quot;font-size: 15px;&quot;&gt;Static Data&lt;/font&gt;" style="text;html=1;align=center;verticalAlign=middle;whiteSpace=wrap;rounded=0;" parent="1" vertex="1">
          <mxGeometry x="260" y="265" width="180" height="30" as="geometry" />
        </mxCell>
        <mxCell id="PcdOBNPo4yxr-nPciD2l-43" value="&lt;font style=&quot;font-size: 14px;&quot;&gt;Dynamic Data (request execution)&lt;/font&gt;" style="text;html=1;align=center;verticalAlign=middle;whiteSpace=wrap;rounded=0;" parent="1" vertex="1">
          <mxGeometry x="1050" y="200" width="230" height="30" as="geometry" />
        </mxCell>
        <mxCell id="PcdOBNPo4yxr-nPciD2l-50" value="" style="endArrow=classic;html=1;rounded=0;exitX=1;exitY=0.5;exitDx=0;exitDy=0;entryX=0;entryY=0.5;entryDx=0;entryDy=0;" parent="1" source="PcdOBNPo4yxr-nPciD2l-34" target="PcdOBNPo4yxr-nPciD2l-44" edge="1">
          <mxGeometry width="50" height="50" relative="1" as="geometry">
            <mxPoint x="910" y="290" as="sourcePoint" />
            <mxPoint x="890" y="310" as="targetPoint" />
            <Array as="points">
              <mxPoint x="890" y="155" />
              <mxPoint x="890" y="280" />
            </Array>
          </mxGeometry>
        </mxCell>
        <mxCell id="PcdOBNPo4yxr-nPciD2l-51" value="" style="endArrow=classic;html=1;rounded=0;exitX=1;exitY=0.5;exitDx=0;exitDy=0;" parent="1" source="PcdOBNPo4yxr-nPciD2l-35" edge="1">
          <mxGeometry width="50" height="50" relative="1" as="geometry">
            <mxPoint x="910" y="290" as="sourcePoint" />
            <mxPoint x="950" y="280" as="targetPoint" />
            <Array as="points">
              <mxPoint x="890" y="340" />
              <mxPoint x="890" y="280" />
            </Array>
          </mxGeometry>
        </mxCell>
        <mxCell id="PcdOBNPo4yxr-nPciD2l-21" value="&lt;font style=&quot;font-size: 17px;&quot;&gt;Separate by Date&lt;/font&gt;" style="text;html=1;align=center;verticalAlign=middle;whiteSpace=wrap;rounded=0;" parent="1" vertex="1">
          <mxGeometry x="585" y="120" width="90" height="90" as="geometry" />
        </mxCell>
      </root>
    </mxGraphModel>
  </diagram>
</mxfile>
